<mxfile host="app.diagrams.net" modified="2023-06-27T12:14:21.392Z" agent="Mozilla/5.0 (Windows NT 10.0; Win64; x64) AppleWebKit/537.36 (KHTML, like Gecko) Chrome/114.0.0.0 Safari/537.36" version="21.5.0" etag="0yr4yl8zbbENGUSfEPXh" type="github">
  <diagram name="PÃ¡gina-1" id="_u6mZdbwRdZ1qGfdRo0N">
    <mxGraphModel>
      <root>
        <mxCell id="0" />
        <mxCell id="1" parent="0" />
      </root>
    </mxGraphModel>
  </diagram>
</mxfile>
